<svg width="140" height="140" viewBox="0 0 140 140" fill="none" xmlns="http://www.w3.org/2000/svg">
<path d="M93.3333 67.0833C93.3333 63.2156 94.8698 59.5063 97.6047 56.7714C100.34 54.0365 104.049 52.5 107.917 52.5C111.784 52.5 115.494 54.0365 118.229 56.7714C120.964 59.5063 122.5 63.2156 122.5 67.0833C122.5 70.9511 120.964 74.6604 118.229 77.3953C115.494 80.1302 111.784 81.6667 107.917 81.6667C104.049 81.6667 100.34 80.1302 97.6047 77.3953C94.8698 74.6604 93.3333 70.9511 93.3333 67.0833ZM75.8333 17.5V116.667H140V17.5H75.8333ZM128.333 93.3333C121.917 93.3333 116.667 98.5833 116.667 105H99.1667C99.1667 101.906 97.9375 98.9383 95.7496 96.7504C93.5617 94.5625 90.5942 93.3333 87.5 93.3333V40.8333C93.975 40.8333 99.1667 35.6417 99.1667 29.1667H116.667C116.667 32.2609 117.896 35.2283 120.084 37.4162C122.272 39.6042 125.239 40.8333 128.333 40.8333V93.3333ZM40.8333 35C47.25 35 52.5 40.25 52.5 46.6667C52.5 53.0833 47.25 58.3333 40.8333 58.3333C34.4167 58.3333 29.1667 53.0833 29.1667 46.6667C29.1667 40.25 34.4167 35 40.8333 35ZM40.8333 23.3333C27.9417 23.3333 17.5 33.775 17.5 46.6667C17.5 59.5583 27.9417 70 40.8333 70C53.725 70 64.1667 59.5583 64.1667 46.6667C64.1667 33.775 53.725 23.3333 40.8333 23.3333ZM40.8333 81.6667C18.2583 81.6667 0 92.1083 0 105V116.667H64.1667V105H11.6667C11.6667 101.617 21.875 93.3333 40.8333 93.3333C51.5083 93.3333 59.325 95.9583 64.1667 98.875V85.8667C57.575 83.2417 49.5833 81.6667 40.8333 81.6667Z" fill="#3998D5"/>
</svg>
