<svg width="140" height="140" viewBox="0 0 140 140" fill="none" xmlns="http://www.w3.org/2000/svg">
<path d="M131.25 87.5C131.259 83.1191 130.171 78.8056 128.086 74.9528C126.001 71.0999 122.984 67.8302 119.312 65.4417C115.639 63.0531 111.428 61.6217 107.06 61.2779C102.693 60.9341 98.3087 61.6888 94.3077 63.4732C90.3067 65.2577 86.8159 68.0151 84.1536 71.4942C81.4912 74.9733 79.7419 79.0634 79.0651 83.3917C78.3883 87.72 78.8056 92.1489 80.2789 96.2747C81.7522 100.4 84.2346 104.092 87.5 107.012V140L105 131.714L122.5 140V107.012C125.25 104.56 127.452 101.554 128.96 98.191C130.468 94.8284 131.248 91.1852 131.25 87.5ZM113.75 126.175L105 122.032L96.25 126.175V112.219C101.905 114.261 108.095 114.261 113.75 112.219V126.175ZM105 105C101.539 105 98.1553 103.974 95.2775 102.051C92.3996 100.128 90.1566 97.3946 88.8321 94.1969C87.5075 90.9992 87.161 87.4805 87.8362 84.0859C88.5115 80.6912 90.1782 77.573 92.6256 75.1256C95.073 72.6782 98.1912 71.0114 101.586 70.3362C104.981 69.661 108.499 70.0075 111.697 71.3321C114.895 72.6566 117.628 74.8996 119.551 77.7775C121.474 80.6553 122.5 84.0388 122.5 87.5C122.494 92.1395 120.649 96.5873 117.368 99.8679C114.087 103.149 109.639 104.994 105 105Z" fill="#3998D5"/>
<path d="M109.375 21.875H96.25V17.5C96.2431 15.1815 95.319 12.9599 93.6796 11.3205C92.0401 9.68102 89.8185 8.75692 87.5 8.75H52.5C50.1815 8.75692 47.9599 9.68102 46.3205 11.3205C44.681 12.9599 43.7569 15.1815 43.75 17.5V21.875H30.625C28.3065 21.8819 26.0849 22.806 24.4455 24.4455C22.806 26.0849 21.8819 28.3065 21.875 30.625V122.5C21.8819 124.819 22.806 127.04 24.4455 128.68C26.0849 130.319 28.3065 131.243 30.625 131.25H70V122.5H30.625V30.625H43.75V43.75H96.25V30.625H109.375V52.5H118.125V30.625C118.118 28.3065 117.194 26.0849 115.555 24.4455C113.915 22.806 111.694 21.8819 109.375 21.875ZM87.5 35H52.5V17.5H87.5V35Z" fill="#3998D5"/>
</svg>
