<svg width="140" height="140" viewBox="0 0 140 140" fill="none" xmlns="http://www.w3.org/2000/svg">
<path d="M46.6667 110.833C49.7609 110.833 52.7283 109.604 54.9162 107.416C57.1042 105.228 58.3333 102.261 58.3333 99.1667C58.3333 96.0725 57.1042 93.105 54.9162 90.9171C52.7283 88.7292 49.7609 87.5 46.6667 87.5C43.5725 87.5 40.605 88.7292 38.4171 90.9171C36.2292 93.105 35 96.0725 35 99.1667C35 102.261 36.2292 105.228 38.4171 107.416C40.605 109.604 43.5725 110.833 46.6667 110.833V110.833Z" stroke="#3998D5" stroke-width="1.5" stroke-miterlimit="1.5" stroke-linecap="round" stroke-linejoin="round"/>
<path d="M105 110.833C108.094 110.833 111.062 109.604 113.25 107.416C115.438 105.228 116.667 102.261 116.667 99.1667C116.667 96.0725 115.438 93.105 113.25 90.9171C111.062 88.7292 108.094 87.5 105 87.5C101.906 87.5 98.9385 88.7292 96.7506 90.9171C94.5627 93.105 93.3335 96.0725 93.3335 99.1667C93.3335 102.261 94.5627 105.228 96.7506 107.416C98.9385 109.604 101.906 110.833 105 110.833V110.833Z" stroke="#3998D5" stroke-width="1.5" stroke-miterlimit="1.5" stroke-linecap="round" stroke-linejoin="round"/>
<path d="M58.6252 99.1667H87.5002V38.5C87.5002 37.5717 87.1314 36.6815 86.475 36.0251C85.8187 35.3687 84.9284 35 84.0002 35H5.8335" stroke="#3998D5" stroke-width="1.5" stroke-linecap="round"/>
<path d="M32.9583 99.1667H21C20.5404 99.1667 20.0852 99.0762 19.6606 98.9003C19.236 98.7244 18.8501 98.4666 18.5251 98.1416C18.2001 97.8166 17.9423 97.4307 17.7664 97.0061C17.5905 96.5815 17.5 96.1263 17.5 95.6667V67.0834" stroke="#3998D5" stroke-width="1.5" stroke-linecap="round"/>
<path d="M11.667 52.5H35.0003" stroke="#3998D5" stroke-width="1.5" stroke-linecap="round" stroke-linejoin="round"/>
<path d="M87.5 52.5H120.225C120.902 52.5002 121.564 52.6964 122.131 53.065C122.698 53.4335 123.147 53.9586 123.422 54.5767L133.863 78.0733C134.062 78.5195 134.166 79.0023 134.167 79.4908V95.6667C134.167 96.1263 134.076 96.5814 133.9 97.006C133.724 97.4307 133.467 97.8165 133.142 98.1415C132.817 98.4665 132.431 98.7243 132.006 98.9002C131.581 99.0761 131.126 99.1667 130.667 99.1667H119.583" stroke="#3998D5" stroke-width="1.5" stroke-linecap="round"/>
<path d="M87.5 99.1666H93.3333" stroke="#3998D5" stroke-width="1.5" stroke-linecap="round"/>
</svg>
