<svg width="59" height="58" viewBox="0 0 59 58" fill="none" xmlns="http://www.w3.org/2000/svg">
<path fill-rule="evenodd" clip-rule="evenodd" d="M29.8462 0C13.8299 0 0.846191 12.9837 0.846191 29C0.846191 45.0163 13.8299 58 29.8462 58C45.8624 58 58.8462 45.0163 58.8462 29C58.8462 12.9837 45.8624 0 29.8462 0ZM23.4706 13.6273C25.1204 13.5522 25.6476 13.5338 29.8481 13.5338H29.8433C34.0451 13.5338 34.5703 13.5522 36.2201 13.6273C37.8667 13.7027 38.9913 13.9634 39.9773 14.3459C40.9955 14.7406 41.8559 15.269 42.7162 16.1294C43.5765 16.9891 44.105 17.852 44.5013 18.8693C44.8815 19.8527 45.1426 20.9766 45.2199 22.6232C45.294 24.273 45.3133 24.8001 45.3133 29.0007C45.3133 33.2012 45.294 33.7271 45.2199 35.3769C45.1426 37.0228 44.8815 38.147 44.5013 39.1308C44.105 40.1477 43.5765 41.0107 42.7162 41.8704C41.8568 42.7307 40.9952 43.2604 39.9782 43.6555C38.9942 44.038 37.869 44.2986 36.2224 44.3741C34.5726 44.4491 34.047 44.4675 29.8462 44.4675C25.646 44.4675 25.1191 44.4491 23.4693 44.3741C21.8231 44.2986 20.6988 44.038 19.7148 43.6555C18.6981 43.2604 17.8352 42.7307 16.9758 41.8704C16.1158 41.0107 15.5874 40.1477 15.192 39.1305C14.8098 38.147 14.5492 37.0231 14.4734 35.3765C14.3987 33.7267 14.38 33.2012 14.38 29.0007C14.38 24.8001 14.3993 24.2727 14.4731 22.6229C14.5472 20.9769 14.8082 19.8527 15.1917 18.8689C15.588 17.852 16.1165 16.9891 16.9768 16.1294C17.8365 15.2693 18.6994 14.7409 19.7167 14.3459C20.7001 13.9634 21.8241 13.7027 23.4706 13.6273Z" fill="#33333F"/>
<path fill-rule="evenodd" clip-rule="evenodd" d="M28.4605 16.3208C28.7299 16.3203 29.0198 16.3205 29.3325 16.3206L29.848 16.3208C33.9777 16.3208 34.4671 16.3356 36.0979 16.4097C37.6059 16.4787 38.4244 16.7306 38.9696 16.9423C39.6914 17.2227 40.206 17.5578 40.747 18.0991C41.2883 18.6405 41.6234 19.156 41.9044 19.8778C42.1161 20.4224 42.3684 21.2408 42.4371 22.7488C42.5112 24.3793 42.5273 24.8691 42.5273 28.9968C42.5273 33.1245 42.5112 33.6143 42.4371 35.2447C42.3681 36.7528 42.1161 37.5712 41.9044 38.1158C41.6241 38.8376 41.2883 39.3515 40.747 39.8925C40.2057 40.4339 39.6917 40.769 38.9696 41.0493C38.425 41.262 37.6059 41.5133 36.0979 41.5823C34.4675 41.6564 33.9777 41.6725 29.848 41.6725C25.7181 41.6725 25.2286 41.6564 23.5981 41.5823C22.0901 41.5127 21.2717 41.2607 20.7261 41.049C20.0044 40.7687 19.4888 40.4335 18.9475 39.8922C18.4061 39.3509 18.071 38.8366 17.79 38.1145C17.5783 37.5699 17.326 36.7515 17.2574 35.2435C17.1833 33.613 17.1685 33.1232 17.1685 28.9929C17.1685 24.8626 17.1833 24.3754 17.2574 22.745C17.3263 21.237 17.5783 20.4185 17.79 19.8733C18.0704 19.1515 18.4061 18.636 18.9475 18.0946C19.4888 17.5533 20.0044 17.2182 20.7261 16.9372C21.2714 16.7245 22.0901 16.4732 23.5981 16.4039C25.025 16.3395 25.5779 16.3201 28.4605 16.3169V16.3208ZM38.1037 18.8887C37.079 18.8887 36.2476 19.719 36.2476 20.744C36.2476 21.7687 37.079 22.6001 38.1037 22.6001C39.1283 22.6001 39.9597 21.7687 39.9597 20.744C39.9597 19.7194 39.1283 18.888 38.1037 18.888V18.8887ZM21.905 29.0001C21.905 24.6136 25.4614 21.0572 29.8479 21.0572H29.8476C34.234 21.0572 37.7895 24.6136 37.7895 29.0001C37.7895 33.3866 34.2343 36.9414 29.8479 36.9414C25.4614 36.9414 21.905 33.3866 21.905 29.0001Z" fill="#33333F"/>
<path fill-rule="evenodd" clip-rule="evenodd" d="M29.8475 23.8447C32.6947 23.8447 35.0031 26.1528 35.0031 29.0003C35.0031 31.8475 32.6947 34.1559 29.8475 34.1559C27 34.1559 24.6919 31.8475 24.6919 29.0003C24.6919 26.1528 27 23.8447 29.8475 23.8447V23.8447Z" fill="#33333F"/>
</svg>
