<svg width="477" height="508" viewBox="0 0 477 508" fill="none" xmlns="http://www.w3.org/2000/svg">
<path d="M418 484L477 445.5V405L345.5 489.5L418 484Z" fill="#BCDBD3"/>
<path d="M208 508L477 336.5V295L189.5 478.5L208 508Z" fill="#BCDBD3"/>
<path d="M476.5 137.5V86L1.5 366L25 402.5L476.5 137.5Z" fill="#BCDBD3"/>
<path d="M60.5 442L83 478.5L477 240.5V191.5L60.5 442Z" fill="#BCDBD3"/>
<path d="M476.5 41C475.424 18.0921 470.541 10.0342 457.5 0.5L0.5 269L24 307L476.5 41Z" fill="#BCDBD3"/>
<path d="M373.618 11.7268L61.3825 193.273L109.025 120.077L286.913 15.2141L373.618 11.7268Z" fill="#BCDBD3"/>
</svg>
