<svg width="71" height="71" viewBox="0 0 71 71" fill="none" xmlns="http://www.w3.org/2000/svg">
<path d="M19.017 29.3998C18.3666 29.3998 17.7424 29.499 17.1212 29.5894C17.3224 28.9127 17.5295 28.2244 17.862 27.6061C18.1945 26.7077 18.7137 25.929 19.2299 25.1444C19.6616 24.2956 20.4228 23.7211 20.9828 22.9948C21.5691 22.289 22.3682 21.8194 23.0012 21.2331C23.6224 20.6206 24.4362 20.3144 25.0837 19.8827C25.7603 19.4948 26.3495 19.0661 26.9795 18.8619L28.5516 18.2144L29.9341 17.6398L28.5195 11.9873L26.7782 12.4073C26.2212 12.5473 25.5416 12.7106 24.7687 12.9061C23.9782 13.0519 23.1353 13.4515 22.1962 13.8161C21.2687 14.2302 20.1953 14.5102 19.1978 15.1752C18.1945 15.8111 17.0366 16.3419 16.0157 17.1936C15.027 18.0715 13.8341 18.8327 12.9532 19.9498C11.9907 20.994 11.0399 22.0906 10.302 23.339C9.4474 24.529 8.86698 25.8356 8.25448 27.1277C7.70032 28.4198 7.25407 29.7411 6.88948 31.0244C6.19823 33.5969 5.88907 36.0411 5.76948 38.1323C5.67032 40.2265 5.72865 41.9677 5.85115 43.2277C5.8949 43.8227 5.97657 44.4002 6.0349 44.7998L6.10782 45.2898L6.18365 45.2723C6.70241 47.6956 7.89662 49.9224 9.62813 51.6953C11.3596 53.4682 13.5577 54.7147 15.968 55.2906C18.3783 55.8664 20.9025 55.7481 23.2484 54.9493C25.5943 54.1506 27.6661 52.704 29.2242 50.7769C30.7823 48.8498 31.763 46.521 32.0528 44.0598C32.3426 41.5987 31.9298 39.1058 30.862 36.8695C29.7942 34.6331 28.1151 32.7448 26.0189 31.423C23.9227 30.1011 21.4951 29.3996 19.017 29.3998ZM51.1003 29.3998C50.4499 29.3998 49.8257 29.499 49.2045 29.5894C49.4057 28.9127 49.6128 28.2244 49.9453 27.6061C50.2778 26.7077 50.797 25.929 51.3132 25.1444C51.7449 24.2956 52.5062 23.7211 53.0662 22.9948C53.6524 22.289 54.4516 21.8194 55.0845 21.2331C55.7057 20.6206 56.5195 20.3144 57.167 19.8827C57.8437 19.4948 58.4328 19.0661 59.0628 18.8619L60.6349 18.2144L62.0174 17.6398L60.6028 11.9873L58.8616 12.4073C58.3045 12.5473 57.6249 12.7106 56.852 12.9061C56.0616 13.0519 55.2187 13.4515 54.2795 13.8161C53.3549 14.2331 52.2787 14.5102 51.2812 15.1781C50.2778 15.814 49.1199 16.3448 48.0991 17.1965C47.1103 18.0744 45.9174 18.8356 45.0366 19.9498C44.0741 20.994 43.1232 22.0906 42.3853 23.339C41.5307 24.529 40.9503 25.8356 40.3378 27.1277C39.7837 28.4198 39.3374 29.7411 38.9728 31.0244C38.2816 33.5969 37.9724 36.0411 37.8528 38.1323C37.7537 40.2265 37.812 41.9677 37.9345 43.2277C37.9782 43.8227 38.0599 44.4002 38.1182 44.7998L38.1912 45.2898L38.267 45.2723C38.7858 47.6956 39.98 49.9224 41.7115 51.6953C43.443 53.4682 45.641 54.7147 48.0514 55.2906C50.4617 55.8664 52.9858 55.7481 55.3317 54.9493C57.6776 54.1506 59.7494 52.704 61.3075 50.7769C62.8656 48.8498 63.8463 46.521 64.1361 44.0598C64.426 41.5987 64.0131 39.1058 62.9453 36.8695C61.8775 34.6331 60.1984 32.7448 58.1022 31.423C56.0061 30.1011 53.5785 29.3996 51.1003 29.3998Z" fill="#57575A"/>
</svg>
