<svg width="59" height="58" viewBox="0 0 59 58" fill="none" xmlns="http://www.w3.org/2000/svg">
<path fill-rule="evenodd" clip-rule="evenodd" d="M29.6924 0C13.6761 0 0.692383 12.9837 0.692383 29C0.692383 45.0163 13.6761 58 29.6924 58C45.7086 58 58.6924 45.0163 58.6924 29C58.6924 12.9837 45.7086 0 29.6924 0ZM28.8846 24.5751L28.8238 23.5717C28.6412 20.9709 30.2437 18.5953 32.7793 17.6738C33.7124 17.3461 35.2946 17.3051 36.3292 17.5918C36.7349 17.7147 37.5057 18.1243 38.0534 18.4929L39.0474 19.1687L40.1427 18.8206C40.7513 18.6363 41.5627 18.3291 41.9278 18.1243C42.2726 17.94 42.5769 17.8376 42.5769 17.899C42.5769 18.2472 41.8264 19.4349 41.1976 20.0903C40.3456 21.0118 40.589 21.0937 42.3132 20.4794C43.3477 20.1312 43.368 20.1312 43.1652 20.5203C43.0435 20.7251 42.4146 21.4419 41.7452 22.0972C40.6093 23.2235 40.5484 23.3464 40.5484 24.2884C40.5484 25.7424 39.8587 28.7733 39.1691 30.4321C37.8911 33.5449 35.1526 36.7601 32.4142 38.3779C28.5601 40.6511 23.428 41.2245 19.1073 39.8933C17.6671 39.4428 15.1923 38.296 15.1923 38.0912C15.1923 38.0298 15.9428 37.9478 16.8557 37.9274C18.7624 37.8864 20.6692 37.354 22.292 36.4119L23.3874 35.7566L22.1297 35.3266C20.3447 34.7122 18.7422 33.2991 18.3365 31.968C18.2148 31.538 18.2553 31.5175 19.3913 31.5175L20.5678 31.497L19.5738 31.026C18.3973 30.4321 17.3222 29.4286 16.7948 28.4047C16.4094 27.6674 15.9226 25.8039 16.0646 25.6605C16.1051 25.5991 16.5311 25.722 17.0179 25.8858C18.4176 26.3978 18.6002 26.2749 17.7888 25.4148C16.2674 23.8584 15.8009 21.5443 16.5311 19.353L16.876 18.37L18.2148 19.7012C20.9532 22.3839 24.1785 23.9812 27.8704 24.4523L28.8846 24.5751Z" fill="#33333F"/>
</svg>
