<svg width="59" height="58" viewBox="0 0 59 58" fill="none" xmlns="http://www.w3.org/2000/svg">
<g clip-path="url(#clip0_150_103)">
<path d="M31.3511 54.375C26.6688 54.375 22.2697 53.2422 18.1538 50.9766L0.538574 58L7.56201 40.3848C5.29639 36.2689 4.16357 31.8698 4.16357 27.1875C4.16357 23.487 4.88102 19.9658 6.31592 16.624C7.75081 13.2822 9.68604 10.3936 12.1216 7.95801C14.5571 5.52246 17.4458 3.58724 20.7876 2.15234C24.1294 0.717448 27.6506 0 31.3511 0C35.0516 0 38.5728 0.717448 41.9146 2.15234C45.2563 3.58724 48.145 5.52246 50.5806 7.95801C53.0161 10.3936 54.9513 13.2822 56.3862 16.624C57.8211 19.9658 58.5386 23.487 58.5386 27.1875C58.5386 30.888 57.8211 34.4092 56.3862 37.751C54.9513 41.0928 53.0161 43.9814 50.5806 46.417C48.145 48.8525 45.2563 50.7878 41.9146 52.2227C38.5728 53.6576 35.0516 54.375 31.3511 54.375ZM40.4136 32.625H36.7886L34.7495 34.4375C33.0503 33.9844 30.964 32.5212 28.4907 30.0479C26.0174 27.5745 24.5542 25.4883 24.1011 23.7891L25.9136 21.75V18.125C25.9136 17.4831 25.687 16.8411 25.2339 16.1992C24.7808 15.5573 24.2804 15.0947 23.7329 14.8115C23.1854 14.5283 22.7983 14.5 22.5718 14.7266L19.9097 17.3887C18.437 18.8613 18.2199 21.1553 19.2583 24.2705C20.2967 27.3857 22.2791 30.4066 25.2056 33.333C28.132 36.2594 31.1528 38.2419 34.2681 39.2803C37.3833 40.3187 39.6772 40.1016 41.1499 38.6289L43.812 35.9668C44.0386 35.7402 44.0103 35.3532 43.7271 34.8057C43.4438 34.2581 42.9813 33.7578 42.3394 33.3047C41.6974 32.8516 41.0555 32.625 40.4136 32.625Z" fill="#33333F"/>
</g>
<defs>
<clipPath id="clip0_150_103">
<rect width="58" height="58" fill="white" transform="translate(0.538574)"/>
</clipPath>
</defs>
</svg>
